{
	"asset":{
		"generator":"Khronos glTF Blender I/O v4.3.47",
		"version":"2.0"
	},
	"scene":0,
	"scenes":[
		{
			"name":"Scene",
			"nodes":[
				0
			]
		}
	],
	"nodes":[
		{
			"mesh":0,
			"name":"Plane.436",
			"rotation":[
				-0.36072781682014465,
				0.6050423383712769,
				0.29783737659454346,
				0.64427649974823
			],
			"scale":[
				0.38716164231300354,
				0.38716164231300354,
				0.38716164231300354
			],
			"translation":[
				2.8674731254577637,
				8.04111385345459,
				6.259181022644043
			]
		}
	],
	"materials":[
		{
			"doubleSided":true,
			"name":"Material.007",
			"pbrMetallicRoughness":{
				"baseColorFactor":[
					0.5523456931114197,
					0.10022754222154617,
					0,
					1
				],
				"metallicFactor":0,
				"roughnessFactor":0.5
			}
		},
		{
			"doubleSided":true,
			"name":"Material.004",
			"pbrMetallicRoughness":{
				"baseColorFactor":[
					1,
					0.6766660213470459,
					0.2702119052410126,
					1
				],
				"metallicFactor":0,
				"roughnessFactor":0.5
			}
		},
		{
			"doubleSided":true,
			"name":"Material.002",
			"pbrMetallicRoughness":{
				"baseColorFactor":[
					0.19811604917049408,
					0.0991775169968605,
					0.04947688430547714,
					1
				],
				"metallicFactor":0,
				"roughnessFactor":0.5
			}
		},
		{
			"doubleSided":true,
			"name":"rock grey ",
			"pbrMetallicRoughness":{
				"baseColorFactor":[
					0.27685344219207764,
					0.27685344219207764,
					0.27685344219207764,
					1
				],
				"metallicFactor":0,
				"roughnessFactor":0.5
			}
		},
		{
			"doubleSided":true,
			"name":"Material",
			"pbrMetallicRoughness":{
				"baseColorFactor":[
					0.43872857093811035,
					0.43872857093811035,
					0.43872857093811035,
					1
				],
				"metallicFactor":0,
				"roughnessFactor":0.5
			}
		},
		{
			"doubleSided":true,
			"name":"Material.015",
			"pbrMetallicRoughness":{
				"baseColorFactor":[
					0.453000009059906,
					0.2434137761592865,
					0.13660749793052673,
					1
				],
				"metallicFactor":0,
				"roughnessFactor":0.5
			}
		},
		{
			"doubleSided":true,
			"name":"Material.006",
			"pbrMetallicRoughness":{
				"baseColorFactor":[
					0.8003705143928528,
					0.28826433420181274,
					0,
					1
				],
				"metallicFactor":0,
				"roughnessFactor":0.5
			}
		},
		{
			"doubleSided":true,
			"name":"Material.005",
			"pbrMetallicRoughness":{
				"baseColorFactor":[
					0.8004242181777954,
					0.19048413634300232,
					0.014592591673135757,
					1
				],
				"metallicFactor":0,
				"roughnessFactor":0.5
			}
		},
		{
			"doubleSided":true,
			"name":"Material.009",
			"pbrMetallicRoughness":{
				"baseColorFactor":[
					0.19811604917049408,
					0.0991775169968605,
					0.04947688430547714,
					1
				],
				"metallicFactor":0,
				"roughnessFactor":0.5
			}
		},
		{
			"doubleSided":true,
			"name":"Material.010",
			"pbrMetallicRoughness":{
				"baseColorFactor":[
					0.19811604917049408,
					0.0991775169968605,
					0.04947688430547714,
					1
				],
				"metallicFactor":0,
				"roughnessFactor":0.5
			}
		},
		{
			"doubleSided":true,
			"name":"Material.011",
			"pbrMetallicRoughness":{
				"baseColorFactor":[
					0.19811604917049408,
					0.0991775169968605,
					0.04947688430547714,
					1
				],
				"metallicFactor":0,
				"roughnessFactor":0.5
			}
		},
		{
			"doubleSided":true,
			"name":"Material.012",
			"pbrMetallicRoughness":{
				"baseColorFactor":[
					0.19811604917049408,
					0.0991775169968605,
					0.04947688430547714,
					1
				],
				"metallicFactor":0,
				"roughnessFactor":0.5
			}
		},
		{
			"doubleSided":true,
			"name":"Material.013",
			"pbrMetallicRoughness":{
				"baseColorFactor":[
					0.19811604917049408,
					0.0991775169968605,
					0.04947688430547714,
					1
				],
				"metallicFactor":0,
				"roughnessFactor":0.5
			}
		},
		{
			"doubleSided":true,
			"name":"Material.014",
			"pbrMetallicRoughness":{
				"baseColorFactor":[
					0.19811604917049408,
					0.0991775169968605,
					0.04947688430547714,
					1
				],
				"metallicFactor":0,
				"roughnessFactor":0.5
			}
		}
	],
	"meshes":[
		{
			"name":"Plane.470",
			"primitives":[
				{
					"attributes":{
						"POSITION":0,
						"NORMAL":1,
						"TEXCOORD_0":2
					},
					"indices":3,
					"material":0
				},
				{
					"attributes":{
						"POSITION":4,
						"NORMAL":5,
						"TEXCOORD_0":6
					},
					"indices":7,
					"material":1
				},
				{
					"attributes":{
						"POSITION":8,
						"NORMAL":9,
						"TEXCOORD_0":10
					},
					"indices":11,
					"material":2
				},
				{
					"attributes":{
						"POSITION":12,
						"NORMAL":13,
						"TEXCOORD_0":14
					},
					"indices":15,
					"material":3
				},
				{
					"attributes":{
						"POSITION":16,
						"NORMAL":17,
						"TEXCOORD_0":18
					},
					"indices":19,
					"material":4
				},
				{
					"attributes":{
						"POSITION":20,
						"NORMAL":21,
						"TEXCOORD_0":22
					},
					"indices":23,
					"material":5
				},
				{
					"attributes":{
						"POSITION":24,
						"NORMAL":25,
						"TEXCOORD_0":26
					},
					"indices":27,
					"material":6
				},
				{
					"attributes":{
						"POSITION":28,
						"NORMAL":29,
						"TEXCOORD_0":30
					},
					"indices":31,
					"material":7
				},
				{
					"attributes":{
						"POSITION":32,
						"NORMAL":33,
						"TEXCOORD_0":34
					},
					"indices":35,
					"material":8
				},
				{
					"attributes":{
						"POSITION":36,
						"NORMAL":37,
						"TEXCOORD_0":38
					},
					"indices":39,
					"material":9
				},
				{
					"attributes":{
						"POSITION":40,
						"NORMAL":41,
						"TEXCOORD_0":42
					},
					"indices":43,
					"material":10
				},
				{
					"attributes":{
						"POSITION":44,
						"NORMAL":45,
						"TEXCOORD_0":46
					},
					"indices":47,
					"material":11
				},
				{
					"attributes":{
						"POSITION":48,
						"NORMAL":49,
						"TEXCOORD_0":50
					},
					"indices":51,
					"material":12
				},
				{
					"attributes":{
						"POSITION":52,
						"NORMAL":53,
						"TEXCOORD_0":54
					},
					"indices":55,
					"material":13
				}
			]
		}
	],
	"accessors":[
		{
			"bufferView":0,
			"componentType":5126,
			"count":20033,
			"max":[
				27.429595947265625,
				35.73259735107422,
				25.864425659179688
			],
			"min":[
				-8.032885551452637,
				-9.994498252868652,
				-16.173803329467773
			],
			"type":"VEC3"
		},
		{
			"bufferView":1,
			"componentType":5126,
			"count":20033,
			"type":"VEC3"
		},
		{
			"bufferView":2,
			"componentType":5126,
			"count":20033,
			"type":"VEC2"
		},
		{
			"bufferView":3,
			"componentType":5123,
			"count":37152,
			"type":"SCALAR"
		},
		{
			"bufferView":4,
			"componentType":5126,
			"count":365,
			"max":[
				26.50604248046875,
				34.466400146484375,
				24.515071868896484
			],
			"min":[
				-6.86680793762207,
				-20.906641006469727,
				-35.41282653808594
			],
			"type":"VEC3"
		},
		{
			"bufferView":5,
			"componentType":5126,
			"count":365,
			"type":"VEC3"
		},
		{
			"bufferView":6,
			"componentType":5126,
			"count":365,
			"type":"VEC2"
		},
		{
			"bufferView":7,
			"componentType":5123,
			"count":639,
			"type":"SCALAR"
		},
		{
			"bufferView":8,
			"componentType":5126,
			"count":25453,
			"max":[
				27.867591857910156,
				37.7519416809082,
				26.036579132080078
			],
			"min":[
				-8.957986831665039,
				-18.207050323486328,
				-31.158626556396484
			],
			"type":"VEC3"
		},
		{
			"bufferView":9,
			"componentType":5126,
			"count":25453,
			"type":"VEC3"
		},
		{
			"bufferView":10,
			"componentType":5126,
			"count":25453,
			"type":"VEC2"
		},
		{
			"bufferView":11,
			"componentType":5123,
			"count":72903,
			"type":"SCALAR"
		},
		{
			"bufferView":12,
			"componentType":5126,
			"count":1738,
			"max":[
				26.893346786499023,
				22.42746925354004,
				-4.571486473083496
			],
			"min":[
				-7.275886535644531,
				-21.74534797668457,
				-36.13330841064453
			],
			"type":"VEC3"
		},
		{
			"bufferView":13,
			"componentType":5126,
			"count":1738,
			"type":"VEC3"
		},
		{
			"bufferView":14,
			"componentType":5126,
			"count":1738,
			"type":"VEC2"
		},
		{
			"bufferView":15,
			"componentType":5123,
			"count":2994,
			"type":"SCALAR"
		},
		{
			"bufferView":16,
			"componentType":5126,
			"count":15432,
			"max":[
				26.440637588500977,
				20.977617263793945,
				-6.218807697296143
			],
			"min":[
				-6.81467342376709,
				-21.010498046875,
				-35.74285125732422
			],
			"type":"VEC3"
		},
		{
			"bufferView":17,
			"componentType":5126,
			"count":15432,
			"type":"VEC3"
		},
		{
			"bufferView":18,
			"componentType":5126,
			"count":15432,
			"type":"VEC2"
		},
		{
			"bufferView":19,
			"componentType":5123,
			"count":23148,
			"type":"SCALAR"
		},
		{
			"bufferView":20,
			"componentType":5126,
			"count":230,
			"max":[
				4.495203018188477,
				-1.2846336364746094,
				-2.787637233734131
			],
			"min":[
				-1.3591256141662598,
				-8.199381828308105,
				-12.258430480957031
			],
			"type":"VEC3"
		},
		{
			"bufferView":21,
			"componentType":5126,
			"count":230,
			"type":"VEC3"
		},
		{
			"bufferView":22,
			"componentType":5126,
			"count":230,
			"type":"VEC2"
		},
		{
			"bufferView":23,
			"componentType":5123,
			"count":570,
			"type":"SCALAR"
		},
		{
			"bufferView":24,
			"componentType":5126,
			"count":18662,
			"max":[
				27.320220947265625,
				35.59703826904297,
				25.939010620117188
			],
			"min":[
				-8.266887664794922,
				-10.468567848205566,
				-17.956422805786133
			],
			"type":"VEC3"
		},
		{
			"bufferView":25,
			"componentType":5126,
			"count":18662,
			"type":"VEC3"
		},
		{
			"bufferView":26,
			"componentType":5126,
			"count":18662,
			"type":"VEC2"
		},
		{
			"bufferView":27,
			"componentType":5123,
			"count":34188,
			"type":"SCALAR"
		},
		{
			"bufferView":28,
			"componentType":5126,
			"count":18603,
			"max":[
				26.690731048583984,
				34.32694625854492,
				25.799901962280273
			],
			"min":[
				-8.716732025146484,
				-8.264047622680664,
				-19.32796287536621
			],
			"type":"VEC3"
		},
		{
			"bufferView":29,
			"componentType":5126,
			"count":18603,
			"type":"VEC3"
		},
		{
			"bufferView":30,
			"componentType":5126,
			"count":18603,
			"type":"VEC2"
		},
		{
			"bufferView":31,
			"componentType":5123,
			"count":34056,
			"type":"SCALAR"
		},
		{
			"bufferView":32,
			"componentType":5126,
			"count":1165,
			"max":[
				3.298185348510742,
				-9.92435073852539,
				3.7087059020996094
			],
			"min":[
				-0.2874767780303955,
				-13.776496887207031,
				-1.2169818878173828
			],
			"type":"VEC3"
		},
		{
			"bufferView":33,
			"componentType":5126,
			"count":1165,
			"type":"VEC3"
		},
		{
			"bufferView":34,
			"componentType":5126,
			"count":1165,
			"type":"VEC2"
		},
		{
			"bufferView":35,
			"componentType":5123,
			"count":3069,
			"type":"SCALAR"
		},
		{
			"bufferView":36,
			"componentType":5126,
			"count":340,
			"max":[
				7.942831993103027,
				9.102507591247559,
				17.665342330932617
			],
			"min":[
				5.367923736572266,
				-1.6116070747375488,
				9.385866165161133
			],
			"type":"VEC3"
		},
		{
			"bufferView":37,
			"componentType":5126,
			"count":340,
			"type":"VEC3"
		},
		{
			"bufferView":38,
			"componentType":5126,
			"count":340,
			"type":"VEC2"
		},
		{
			"bufferView":39,
			"componentType":5123,
			"count":651,
			"type":"SCALAR"
		},
		{
			"bufferView":40,
			"componentType":5126,
			"count":240,
			"max":[
				14.85189437866211,
				10.008265495300293,
				11.556507110595703
			],
			"min":[
				5.955470085144043,
				7.024279594421387,
				9.27291202545166
			],
			"type":"VEC3"
		},
		{
			"bufferView":41,
			"componentType":5126,
			"count":240,
			"type":"VEC3"
		},
		{
			"bufferView":42,
			"componentType":5126,
			"count":240,
			"type":"VEC2"
		},
		{
			"bufferView":43,
			"componentType":5123,
			"count":477,
			"type":"SCALAR"
		},
		{
			"bufferView":44,
			"componentType":5126,
			"count":349,
			"max":[
				26.205360412597656,
				11.056976318359375,
				17.96184539794922
			],
			"min":[
				23.72085189819336,
				-0.37473297119140625,
				9.472530364990234
			],
			"type":"VEC3"
		},
		{
			"bufferView":45,
			"componentType":5126,
			"count":349,
			"type":"VEC3"
		},
		{
			"bufferView":46,
			"componentType":5126,
			"count":349,
			"type":"VEC2"
		},
		{
			"bufferView":47,
			"componentType":5123,
			"count":660,
			"type":"SCALAR"
		},
		{
			"bufferView":48,
			"componentType":5126,
			"count":405,
			"max":[
				24.983722686767578,
				1.00285005569458,
				18.2774715423584
			],
			"min":[
				7.016138076782227,
				-2.291855812072754,
				15.870898246765137
			],
			"type":"VEC3"
		},
		{
			"bufferView":49,
			"componentType":5126,
			"count":405,
			"type":"VEC3"
		},
		{
			"bufferView":50,
			"componentType":5126,
			"count":405,
			"type":"VEC2"
		},
		{
			"bufferView":51,
			"componentType":5123,
			"count":753,
			"type":"SCALAR"
		},
		{
			"bufferView":52,
			"componentType":5126,
			"count":292,
			"max":[
				24.877653121948242,
				26.458389282226562,
				11.482527732849121
			],
			"min":[
				-0.20437276363372803,
				-13.284088134765625,
				-25.0245418548584
			],
			"type":"VEC3"
		},
		{
			"bufferView":53,
			"componentType":5126,
			"count":292,
			"type":"VEC3"
		},
		{
			"bufferView":54,
			"componentType":5126,
			"count":292,
			"type":"VEC2"
		},
		{
			"bufferView":55,
			"componentType":5123,
			"count":555,
			"type":"SCALAR"
		}
	],
	"bufferViews":[
		{
			"buffer":0,
			"byteLength":240396,
			"byteOffset":0,
			"target":34962
		},
		{
			"buffer":0,
			"byteLength":240396,
			"byteOffset":240396,
			"target":34962
		},
		{
			"buffer":0,
			"byteLength":160264,
			"byteOffset":480792,
			"target":34962
		},
		{
			"buffer":0,
			"byteLength":74304,
			"byteOffset":641056,
			"target":34963
		},
		{
			"buffer":0,
			"byteLength":4380,
			"byteOffset":715360,
			"target":34962
		},
		{
			"buffer":0,
			"byteLength":4380,
			"byteOffset":719740,
			"target":34962
		},
		{
			"buffer":0,
			"byteLength":2920,
			"byteOffset":724120,
			"target":34962
		},
		{
			"buffer":0,
			"byteLength":1278,
			"byteOffset":727040,
			"target":34963
		},
		{
			"buffer":0,
			"byteLength":305436,
			"byteOffset":728320,
			"target":34962
		},
		{
			"buffer":0,
			"byteLength":305436,
			"byteOffset":1033756,
			"target":34962
		},
		{
			"buffer":0,
			"byteLength":203624,
			"byteOffset":1339192,
			"target":34962
		},
		{
			"buffer":0,
			"byteLength":145806,
			"byteOffset":1542816,
			"target":34963
		},
		{
			"buffer":0,
			"byteLength":20856,
			"byteOffset":1688624,
			"target":34962
		},
		{
			"buffer":0,
			"byteLength":20856,
			"byteOffset":1709480,
			"target":34962
		},
		{
			"buffer":0,
			"byteLength":13904,
			"byteOffset":1730336,
			"target":34962
		},
		{
			"buffer":0,
			"byteLength":5988,
			"byteOffset":1744240,
			"target":34963
		},
		{
			"buffer":0,
			"byteLength":185184,
			"byteOffset":1750228,
			"target":34962
		},
		{
			"buffer":0,
			"byteLength":185184,
			"byteOffset":1935412,
			"target":34962
		},
		{
			"buffer":0,
			"byteLength":123456,
			"byteOffset":2120596,
			"target":34962
		},
		{
			"buffer":0,
			"byteLength":46296,
			"byteOffset":2244052,
			"target":34963
		},
		{
			"buffer":0,
			"byteLength":2760,
			"byteOffset":2290348,
			"target":34962
		},
		{
			"buffer":0,
			"byteLength":2760,
			"byteOffset":2293108,
			"target":34962
		},
		{
			"buffer":0,
			"byteLength":1840,
			"byteOffset":2295868,
			"target":34962
		},
		{
			"buffer":0,
			"byteLength":1140,
			"byteOffset":2297708,
			"target":34963
		},
		{
			"buffer":0,
			"byteLength":223944,
			"byteOffset":2298848,
			"target":34962
		},
		{
			"buffer":0,
			"byteLength":223944,
			"byteOffset":2522792,
			"target":34962
		},
		{
			"buffer":0,
			"byteLength":149296,
			"byteOffset":2746736,
			"target":34962
		},
		{
			"buffer":0,
			"byteLength":68376,
			"byteOffset":2896032,
			"target":34963
		},
		{
			"buffer":0,
			"byteLength":223236,
			"byteOffset":2964408,
			"target":34962
		},
		{
			"buffer":0,
			"byteLength":223236,
			"byteOffset":3187644,
			"target":34962
		},
		{
			"buffer":0,
			"byteLength":148824,
			"byteOffset":3410880,
			"target":34962
		},
		{
			"buffer":0,
			"byteLength":68112,
			"byteOffset":3559704,
			"target":34963
		},
		{
			"buffer":0,
			"byteLength":13980,
			"byteOffset":3627816,
			"target":34962
		},
		{
			"buffer":0,
			"byteLength":13980,
			"byteOffset":3641796,
			"target":34962
		},
		{
			"buffer":0,
			"byteLength":9320,
			"byteOffset":3655776,
			"target":34962
		},
		{
			"buffer":0,
			"byteLength":6138,
			"byteOffset":3665096,
			"target":34963
		},
		{
			"buffer":0,
			"byteLength":4080,
			"byteOffset":3671236,
			"target":34962
		},
		{
			"buffer":0,
			"byteLength":4080,
			"byteOffset":3675316,
			"target":34962
		},
		{
			"buffer":0,
			"byteLength":2720,
			"byteOffset":3679396,
			"target":34962
		},
		{
			"buffer":0,
			"byteLength":1302,
			"byteOffset":3682116,
			"target":34963
		},
		{
			"buffer":0,
			"byteLength":2880,
			"byteOffset":3683420,
			"target":34962
		},
		{
			"buffer":0,
			"byteLength":2880,
			"byteOffset":3686300,
			"target":34962
		},
		{
			"buffer":0,
			"byteLength":1920,
			"byteOffset":3689180,
			"target":34962
		},
		{
			"buffer":0,
			"byteLength":954,
			"byteOffset":3691100,
			"target":34963
		},
		{
			"buffer":0,
			"byteLength":4188,
			"byteOffset":3692056,
			"target":34962
		},
		{
			"buffer":0,
			"byteLength":4188,
			"byteOffset":3696244,
			"target":34962
		},
		{
			"buffer":0,
			"byteLength":2792,
			"byteOffset":3700432,
			"target":34962
		},
		{
			"buffer":0,
			"byteLength":1320,
			"byteOffset":3703224,
			"target":34963
		},
		{
			"buffer":0,
			"byteLength":4860,
			"byteOffset":3704544,
			"target":34962
		},
		{
			"buffer":0,
			"byteLength":4860,
			"byteOffset":3709404,
			"target":34962
		},
		{
			"buffer":0,
			"byteLength":3240,
			"byteOffset":3714264,
			"target":34962
		},
		{
			"buffer":0,
			"byteLength":1506,
			"byteOffset":3717504,
			"target":34963
		},
		{
			"buffer":0,
			"byteLength":3504,
			"byteOffset":3719012,
			"target":34962
		},
		{
			"buffer":0,
			"byteLength":3504,
			"byteOffset":3722516,
			"target":34962
		},
		{
			"buffer":0,
			"byteLength":2336,
			"byteOffset":3726020,
			"target":34962
		},
		{
			"buffer":0,
			"byteLength":1110,
			"byteOffset":3728356,
			"target":34963
		}
	],
	"buffers":[
		{
			"byteLength":3729468,
			"uri":"1house.bin"
		}
	]
}
